<svg width="158" height="55" viewBox="0 0 158 55" fill="none" xmlns="http://www.w3.org/2000/svg">
<path d="M117.423 3.56051C117.423 3.1022 117.576 2.73789 117.888 2.46172C118.199 2.18556 118.581 2.05042 119.039 2.05042H156.016C156.428 2.05042 156.798 2.17381 157.115 2.42647C157.438 2.67913 157.62 3.05519 157.667 3.55464V12.0864C157.667 12.4977 157.526 12.8914 157.238 13.2675C156.95 13.6435 156.545 13.8315 156.016 13.8315H144.159V51.4606C144.159 51.8719 144.012 52.248 143.712 52.577C143.412 52.912 143.025 53.0765 142.549 53.0765H132.472C132.084 53.0765 131.719 52.9237 131.373 52.6123C131.032 52.3009 130.856 51.9189 130.856 51.4606V13.8374H119.033C118.575 13.8374 118.193 13.6905 117.882 13.3908C117.57 13.0912 117.418 12.6622 117.418 12.0864V3.56051H117.423Z" fill="black"/>
<path d="M98.4325 1.99192C101.094 -0.663974 105.402 -0.663974 108.057 1.99192C110.713 4.64775 110.713 8.96013 108.057 11.6159L92.4452 27.2282L108.052 42.8347C110.708 45.4906 110.708 49.8038 108.052 52.4597C106.724 53.7818 104.984 54.4519 103.239 54.4519C101.494 54.4519 99.7545 53.7876 98.4266 52.4597L82.8202 36.8532L67.2137 52.4597C65.8858 53.7816 64.1404 54.4509 62.4012 54.4509C60.6564 54.4508 58.9175 53.7873 57.5897 52.4597C54.9338 49.8038 54.9338 45.4906 57.5897 42.8347L73.1952 27.2282L57.5838 11.6169C54.9279 8.96103 54.9279 4.64782 57.5838 1.99192C60.2456 -0.66397 64.5529 -0.663972 67.2088 1.99192L82.8202 17.6032L98.4325 1.99192Z" fill="#5F68FF"/>
<path d="M62.4021 40.8373C66.1597 40.8375 69.2057 43.8834 69.2058 47.641C69.2058 51.3987 66.1598 54.4454 62.4021 54.4457C58.6442 54.4457 55.5974 51.3989 55.5974 47.641C55.5976 43.8832 58.6443 40.8373 62.4021 40.8373ZM103.239 40.8373C106.997 40.8373 110.044 43.8832 110.044 47.641C110.044 51.3989 106.997 54.4457 103.239 54.4457C99.4811 54.4457 96.4343 51.3989 96.4343 47.641C96.4345 43.8832 99.4812 40.8373 103.239 40.8373ZM82.8201 20.4183C86.578 20.4183 89.6248 23.4651 89.6248 27.223C89.6245 30.9807 86.5778 34.0267 82.8201 34.0267C79.0624 34.0266 76.0166 30.9806 76.0164 27.223C76.0164 23.4652 79.0623 20.4185 82.8201 20.4183Z" fill="black"/>
<path d="M0 3.56637C0 3.15506 0.123393 2.79664 0.376056 2.50284C0.628718 2.20317 1.00477 2.05627 1.5101 2.05627H12.7506C13.0738 2.05627 13.4029 2.13854 13.7495 2.29719C14.0903 2.45583 14.39 2.732 14.6427 3.11981C17.5512 7.81463 20.4363 12.4448 23.3037 17.0045C26.1653 21.5642 29.0679 26.1944 32 30.8892V3.36072C32.094 2.94941 32.2762 2.62624 32.5523 2.39708C32.8285 2.16792 33.1458 2.05627 33.516 2.05627H43.3111C43.7929 2.05627 44.1924 2.18554 44.5156 2.44996C44.8388 2.71437 44.9974 3.08455 44.9974 3.56637V51.7485C44.9974 52.2068 44.8623 52.5418 44.5861 52.7651C44.3099 52.9825 43.9339 53.0941 43.4521 53.0941H32.4759C32.1763 53.0941 31.9119 52.9883 31.6827 52.7827C31.4535 52.577 31.2126 52.3009 30.96 51.9601C27.9104 46.9186 24.9019 41.9358 21.9229 37.0118C18.9438 32.0879 15.9177 27.1051 12.8505 22.0636V51.584C12.8505 52.0893 12.733 52.4654 12.5097 52.718C12.2806 52.9707 11.8693 53.0941 11.2699 53.0941H1.5101C0.981271 53.0941 0.599339 52.9531 0.358428 52.6652C0.123393 52.3714 0 52.0188 0 51.6075V3.56637Z" fill="black"/>
</svg>
