<svg width="1200" height="820" viewBox="0 0 1200 820" fill="none" xmlns="http://www.w3.org/2000/svg">
  <rect width="1200" height="820" rx="32" fill="#FAFCFF"/>
  <rect x="28" y="28" width="1144" height="764" rx="28" fill="white" stroke="#E6E8F0"/>
  <rect x="58" y="58" width="228" height="704" rx="22" fill="#FBFCFF" stroke="#E6E8F0"/>
  <rect x="86" y="108" width="144" height="14" rx="7" fill="#CBD5E1"/>
  <rect x="86" y="155" width="172" height="54" rx="14" fill="#EEF2FF"/>
  <rect x="86" y="226" width="172" height="54" rx="14" fill="#F8FAFC"/>
  <rect x="86" y="297" width="172" height="54" rx="14" fill="#F8FAFC"/>
  <rect x="86" y="368" width="172" height="54" rx="14" fill="#F8FAFC"/>
  <rect x="320" y="58" width="822" height="148" rx="22" fill="#FCFDFF" stroke="#E6E8F0"/>
  <rect x="354" y="93" width="174" height="16" rx="8" fill="#CBD5E1"/>
  <rect x="354" y="130" width="212" height="40" rx="20" fill="#EEF2FF"/>
  <rect x="822" y="96" width="120" height="68" rx="16" fill="#F8FAFC" stroke="#E6E8F0"/>
  <rect x="966" y="96" width="140" height="68" rx="16" fill="#5F68FF"/>
  <rect x="320" y="238" width="404" height="246" rx="22" fill="#FFFFFF" stroke="#E6E8F0"/>
  <rect x="354" y="278" width="146" height="14" rx="7" fill="#CBD5E1"/>
  <path d="M366 426C409 395 439 386 482 397C523 408 550 370 589 354C623 340 651 348 684 314" stroke="#5F68FF" stroke-width="8" stroke-linecap="round"/>
  <path d="M366 426C410 441 445 451 476 449C521 446 548 431 589 409C622 392 648 397 684 371" stroke="#D8DEFF" stroke-width="18" stroke-linecap="round" opacity="0.38"/>
  <circle cx="482" cy="397" r="9" fill="#5F68FF"/>
  <circle cx="589" cy="354" r="9" fill="#5F68FF"/>
  <circle cx="684" cy="314" r="9" fill="#5F68FF"/>
  <rect x="752" y="238" width="390" height="246" rx="22" fill="#FFFFFF" stroke="#E6E8F0"/>
  <rect x="788" y="276" width="146" height="14" rx="7" fill="#CBD5E1"/>
  <rect x="788" y="330" width="72" height="110" rx="20" fill="#EEF2FF"/>
  <rect x="879" y="308" width="72" height="132" rx="20" fill="#D8DEFF"/>
  <rect x="970" y="276" width="72" height="164" rx="20" fill="#5F68FF"/>
  <rect x="1061" y="350" width="48" height="90" rx="20" fill="#EEF2FF"/>
  <rect x="320" y="516" width="822" height="214" rx="22" fill="#FFFFFF" stroke="#E6E8F0"/>
  <rect x="354" y="550" width="198" height="18" rx="9" fill="#CBD5E1"/>
  <rect x="354" y="606" width="322" height="20" rx="10" fill="#E2E8F0"/>
  <rect x="354" y="646" width="274" height="20" rx="10" fill="#E2E8F0"/>
  <circle cx="844" cy="621" r="74" fill="#F3F6FF" stroke="#DCE4FF"/>
  <circle cx="844" cy="621" r="52" fill="white" stroke="#E6E8F0"/>
  <path d="M844 560V621L884 643" stroke="#5F68FF" stroke-width="8" stroke-linecap="round" stroke-linejoin="round"/>
  <rect x="956" y="570" width="142" height="26" rx="13" fill="#EEF2FF"/>
  <rect x="956" y="613" width="112" height="18" rx="9" fill="#CBD5E1"/>
  <rect x="956" y="649" width="136" height="18" rx="9" fill="#CBD5E1"/>
</svg>
