<svg width="960" height="620" viewBox="0 0 960 620" fill="none" xmlns="http://www.w3.org/2000/svg">
  <rect width="960" height="620" rx="28" fill="#FAFCFF"/>
  <rect x="24" y="24" width="912" height="572" rx="24" fill="white" stroke="#E6E8F0"/>
  <rect x="52" y="52" width="856" height="76" rx="18" fill="#FBFCFF" stroke="#E6E8F0"/>
  <rect x="80" y="82" width="156" height="16" rx="8" fill="#CBD5E1"/>
  <rect x="738" y="70" width="142" height="40" rx="20" fill="#5F68FF"/>
  <rect x="52" y="156" width="254" height="402" rx="20" fill="#FBFCFF" stroke="#E6E8F0"/>
  <rect x="84" y="192" width="132" height="14" rx="7" fill="#CBD5E1"/>
  <rect x="84" y="236" width="190" height="60" rx="16" fill="#EEF2FF"/>
  <rect x="84" y="312" width="190" height="60" rx="16" fill="#FFFFFF" stroke="#E6E8F0"/>
  <rect x="84" y="388" width="190" height="60" rx="16" fill="#FFFFFF" stroke="#E6E8F0"/>
  <rect x="334" y="156" width="574" height="402" rx="20" fill="#FFFFFF" stroke="#E6E8F0"/>
  <rect x="368" y="192" width="170" height="16" rx="8" fill="#CBD5E1"/>
  <rect x="368" y="238" width="506" height="82" rx="20" fill="#F8FAFC"/>
  <circle cx="408" cy="279" r="18" fill="#5F68FF"/>
  <rect x="442" y="260" width="150" height="14" rx="7" fill="#94A3B8"/>
  <rect x="442" y="286" width="106" height="12" rx="6" fill="#CBD5E1"/>
  <rect x="764" y="264" width="78" height="30" rx="15" fill="#EEF2FF"/>
  <rect x="368" y="336" width="506" height="82" rx="20" fill="#F8FAFC"/>
  <circle cx="408" cy="377" r="18" fill="#D8DEFF"/>
  <rect x="442" y="358" width="186" height="14" rx="7" fill="#94A3B8"/>
  <rect x="442" y="384" width="132" height="12" rx="6" fill="#CBD5E1"/>
  <rect x="746" y="362" width="96" height="30" rx="15" fill="#E2E8F0"/>
  <rect x="368" y="434" width="506" height="82" rx="20" fill="#F8FAFC"/>
  <circle cx="408" cy="475" r="18" fill="#EEF2FF" stroke="#5F68FF"/>
  <rect x="442" y="456" width="158" height="14" rx="7" fill="#94A3B8"/>
  <rect x="442" y="482" width="190" height="12" rx="6" fill="#CBD5E1"/>
  <rect x="754" y="460" width="88" height="30" rx="15" fill="#EEF2FF"/>
</svg>
