<svg width="1100" height="820" viewBox="0 0 1100 820" fill="none" xmlns="http://www.w3.org/2000/svg">
  <rect width="1100" height="820" rx="30" fill="#FAFCFF"/>
  <rect x="24" y="24" width="1052" height="772" rx="28" fill="white" stroke="#E6E8F0"/>
  <circle cx="250" cy="250" r="92" fill="#F3F6FF" stroke="#DCE4FF"/>
  <circle cx="550" cy="180" r="92" fill="#F3F6FF" stroke="#DCE4FF"/>
  <circle cx="830" cy="280" r="92" fill="#F3F6FF" stroke="#DCE4FF"/>
  <circle cx="320" cy="570" r="92" fill="#F3F6FF" stroke="#DCE4FF"/>
  <circle cx="760" cy="580" r="92" fill="#F3F6FF" stroke="#DCE4FF"/>
  <path d="M250 250C342 212 442 174 550 180" stroke="#5F68FF" stroke-width="8" stroke-linecap="round" stroke-dasharray="2 16"/>
  <path d="M550 180C652 184 742 211 830 280" stroke="#5F68FF" stroke-width="8" stroke-linecap="round" stroke-dasharray="2 16"/>
  <path d="M250 250C270 374 292 457 320 570" stroke="#B4C0FF" stroke-width="18" stroke-linecap="round" opacity="0.4"/>
  <path d="M320 570C449 610 602 610 760 580" stroke="#5F68FF" stroke-width="8" stroke-linecap="round" stroke-dasharray="2 16"/>
  <path d="M830 280C827 410 812 494 760 580" stroke="#B4C0FF" stroke-width="18" stroke-linecap="round" opacity="0.4"/>
  <rect x="202" y="216" width="96" height="68" rx="16" fill="white" stroke="#E6E8F0"/>
  <rect x="507" y="144" width="86" height="72" rx="16" fill="white" stroke="#E6E8F0"/>
  <rect x="786" y="240" width="88" height="78" rx="16" fill="white" stroke="#E6E8F0"/>
  <rect x="275" y="535" width="90" height="72" rx="16" fill="white" stroke="#E6E8F0"/>
  <rect x="716" y="542" width="90" height="76" rx="16" fill="white" stroke="#E6E8F0"/>
  <circle cx="250" cy="250" r="12" fill="#5F68FF"/>
  <circle cx="550" cy="180" r="12" fill="#5F68FF"/>
  <circle cx="830" cy="280" r="12" fill="#5F68FF"/>
  <circle cx="320" cy="570" r="12" fill="#5F68FF"/>
  <circle cx="760" cy="580" r="12" fill="#5F68FF"/>
  <rect x="146" y="90" width="254" height="74" rx="18" fill="white" stroke="#E6E8F0"/>
  <text x="178" y="136" fill="#0F172A" font-family="Inter, Arial, sans-serif" font-size="26" font-weight="700">AI-Driven Intelligence</text>
  <rect x="668" y="88" width="256" height="74" rx="18" fill="white" stroke="#E6E8F0"/>
  <text x="702" y="136" fill="#0F172A" font-family="Inter, Arial, sans-serif" font-size="26" font-weight="700">Connected Ecosystem</text>
</svg>
