<svg width="360" height="105" viewBox="0 0 360 105" fill="none" xmlns="http://www.w3.org/2000/svg">
  <defs>
    <linearGradient id="ringGrad" x1="20" y1="15" x2="95" y2="92" gradientUnits="userSpaceOnUse">
      <stop offset="0" stop-color="#5F68FF"/>
      <stop offset="0.52" stop-color="#00BED9"/>
      <stop offset="1" stop-color="#09D1B1"/>
    </linearGradient>
  </defs>

  <g transform="translate(0,2)">
    <path d="M49.8 0.6L79.9 18.0C86.7 22 90.9 29.2 90.9 37.1V71.9C90.9 79.8 86.7 87 79.9 91L49.8 108.4C43 112.3 34.6 112.3 27.8 108.4L-2.3 91C-9.1 87 -13.3 79.8 -13.3 71.9V37.1C-13.3 29.2 -9.1 22 -2.3 18L27.8 0.6C34.6 -3.3 43 -3.3 49.8 0.6Z" fill="url(#ringGrad)" transform="scale(0.9) translate(16,4)"/>
    <path d="M39 26L59.6 38.5C62.4 40.2 64.1 43.2 64.1 46.5V69.5C64.1 72.8 62.4 75.8 59.6 77.5L39 90C36.2 91.7 32.7 91.7 29.9 90L9.3 77.5C6.5 75.8 4.8 72.8 4.8 69.5V46.5C4.8 43.2 6.5 40.2 9.3 38.5L29.9 26C32.7 24.3 36.2 24.3 39 26Z" fill="#B8B8B8" transform="translate(8,4)"/>
    <path d="M39 57L64 43V69.5C64 72.8 62.3 75.8 59.5 77.5L39 90V57Z" fill="#000" transform="translate(8,4)"/>
  </g>

  <text x="112" y="64" fill="#FFFFFF" font-size="46" font-weight="700" font-family="'Plus Jakarta Sans', 'Manrope', sans-serif" letter-spacing="0.2">Asseto</text>
</svg>
